<svg width="132" height="80" viewBox="0 0 132 80" fill="none" xmlns="http://www.w3.org/2000/svg">
<g clip-path="url(#clip0_71_19267)">
<circle cx="66.5947" cy="87.6747" r="65.5944" fill="#FEDFD4"/>
<path d="M60.7335 98.6811L57.936 98.8764L55.1385 99.0716C53.7495 99.1685 52.4211 98.7136 51.4092 97.8861C50.3974 97.0587 49.7022 95.8592 49.5795 94.4675C49.4545 93.0495 50.0538 91.8132 50.8854 90.8668C51.717 89.9205 52.7813 89.2635 53.5859 89.0048C53.7748 88.9438 54.1072 88.8861 54.3975 88.6561C54.6879 88.4262 54.9363 88.0244 54.9577 87.2757C55.0359 84.511 55.1038 82.6486 55.1521 81.4769C55.2004 80.3051 55.2291 79.8249 55.2291 79.8249C55.1318 78.431 55.585 77.0983 56.4088 76.0835C57.2329 75.0686 58.428 74.3716 59.8154 74.2495C61.2285 74.1248 62.5526 74.5938 63.5477 75.4472C64.5429 76.3006 65.2099 77.5388 65.3086 78.9529L65.3672 86.1095L65.4258 93.266C65.5572 95.1499 65.2209 96.4453 64.4335 97.2988C63.6457 98.1523 62.4069 98.5643 60.7335 98.6811Z" fill="#FFCB31"/>
<path d="M81.6129 98.6808L78.8155 98.8761L76.018 99.0713C74.6289 99.1683 73.3005 98.7133 72.2887 97.8858C71.2769 97.0584 70.5816 95.8589 70.4589 94.4672C70.334 93.0492 70.9333 91.8129 71.7649 90.8665C72.5965 89.9202 73.6608 89.2633 74.4654 89.0045C74.6543 88.9435 74.9866 88.8858 75.277 88.6559C75.5674 88.4259 75.8158 88.0241 75.8371 87.2754C75.9153 84.5107 75.9833 82.6483 76.0316 81.4766C76.0799 80.3048 76.1085 79.8246 76.1085 79.8246C76.0112 78.4307 76.4645 77.098 77.2882 76.0832C78.1124 75.0683 79.3075 74.3713 80.6948 74.2492C82.108 74.1245 83.4321 74.5935 84.4272 75.4469C85.4223 76.3003 86.0894 77.5385 86.1881 78.9526L86.2466 86.1092L86.3052 93.2658C86.4367 95.1496 86.1003 96.445 85.3129 97.2985C84.5251 98.152 83.2863 98.564 81.6129 98.6808Z" fill="#FFCB31"/>
<path d="M104.485 74.3881C104.573 75.6287 104.519 76.9285 104.286 78.1525C104.054 79.3766 103.643 80.5247 103.019 81.4628C102.598 82.0945 101.964 82.836 101.14 83.4492C100.316 84.0624 99.302 84.5468 98.1199 84.6657C97.4494 84.7329 96.76 84.5964 96.1204 84.3057C95.4808 84.0147 94.8909 83.5695 94.4205 83.0192C93.7806 82.2712 93.3613 81.0381 93.0081 79.6774C92.6546 78.3165 92.3668 76.8277 91.99 75.5689C91.4317 73.704 90.4252 72.0607 89.4675 70.7598C88.5098 69.4593 87.6008 68.5012 87.2374 68.0064C86.3942 66.8584 85.7487 65.8824 85.3201 65.0043C84.8918 64.1263 84.6802 63.3461 84.7047 62.59C84.7301 61.8094 84.8231 61.178 85.0377 60.5954C85.252 60.0131 85.5875 59.4796 86.098 58.8959C86.6312 58.2857 87.3888 57.8684 88.1829 57.6444C88.9771 57.4204 89.8083 57.3894 90.4887 57.5526C93.7015 58.3225 97.0902 60.9854 99.7313 64.2287C102.372 67.4716 104.265 71.2957 104.485 74.3881Z" fill="#FA703C"/>
<path d="M23.96 55.8611C23.2964 54.5646 22.7563 53.137 22.4392 51.7074C22.1217 50.2778 22.0273 48.8462 22.2546 47.5409C22.4079 46.6618 22.7351 45.5641 23.3223 44.5154C23.9094 43.4666 24.7565 42.4672 25.9484 41.7832C26.6245 41.3956 27.4143 41.2188 28.2225 41.2316C29.0308 41.2444 29.8574 41.4477 30.6064 41.8201C31.6251 42.3261 32.634 43.459 33.6319 44.7607C34.6303 46.0624 35.618 47.5329 36.594 48.7135C38.0399 50.4627 39.8566 51.762 41.4644 52.7149C43.0723 53.6674 44.4711 54.2736 45.0818 54.6364C46.4987 55.4783 47.628 56.2276 48.4836 56.9732C49.3389 57.7189 49.9205 58.4609 50.2423 59.288C50.5743 60.1419 50.7664 60.8667 50.8079 61.596C50.8495 62.3248 50.7409 63.058 50.4708 63.9276C50.189 64.8364 49.5819 65.6426 48.8474 66.2576C48.1128 66.8726 47.2505 67.2967 46.458 67.4406C42.716 68.1206 37.9184 66.8413 33.6425 64.5847C29.3667 62.328 25.6137 59.0932 23.96 55.8611Z" fill="#FA703C"/>
<path d="M92.0598 10.7658C91.3768 13.1295 90.3872 15.1614 89.1351 16.4765C87.8829 17.7917 86.3682 18.3897 84.6357 17.8853C82.7731 17.3433 81.8121 16.0251 81.4875 14.2514C81.1629 12.4777 81.4752 10.2485 82.1582 7.8848C82.8413 5.52106 83.7952 3.4786 85.0298 2.15859C86.2644 0.838587 87.7787 0.240591 89.5828 0.765327C91.3152 1.26932 92.2762 2.58756 92.6334 4.37052C92.9905 6.15348 92.7429 8.40204 92.0598 10.7658Z" fill="black"/>
<path d="M43.9809 10.5187C44.6639 12.8825 45.6535 14.9143 46.9057 16.2295C48.1578 17.5446 49.6726 18.1426 51.405 17.6382C53.2676 17.0962 54.2286 15.778 54.5532 14.0043C54.8778 12.2306 54.5655 10.0015 53.8825 7.63773C53.1995 5.27399 52.2455 3.23153 51.0109 1.91152C49.7764 0.591517 48.2621 -0.00647977 46.4579 0.518257C44.7255 1.02225 43.7645 2.34049 43.4074 4.12345C43.0502 5.90641 43.2983 8.15497 43.9809 10.5187Z" fill="black"/>
<path d="M69.8074 52.6931C62.9502 52.6931 56.7417 53.2841 52.2481 55.714C47.7545 58.1439 44.9749 62.4133 44.9749 69.7707C44.9749 76.0538 47.4365 80.3232 51.7718 83.0215C56.1066 85.7202 62.3151 86.8478 69.8074 86.8478C77.2997 86.8478 83.5081 85.7202 87.843 83.0215C92.1778 80.3228 94.6399 76.0538 94.6399 69.7707C94.6399 62.4133 91.8603 58.1444 87.3667 55.714C82.873 53.2836 76.665 52.6931 69.8074 52.6931Z" fill="#FA703C"/>
<path d="M69.8078 9.8313C60.8787 9.8313 51.2348 11.4704 43.823 15.6056C36.4112 19.7408 31.2314 26.3735 31.2314 36.3599C31.2314 46.1207 35.7968 52.7525 42.9016 56.9446C50.0064 61.1368 59.6503 62.8884 69.8078 62.8884C81.4472 62.8884 91.0915 60.7343 97.8256 56.3414C104.56 51.9484 108.384 45.3161 108.384 36.3594C108.384 26.013 103.649 19.3807 96.4586 15.3351C89.2685 11.2894 79.625 9.8313 69.8078 9.8313Z" fill="#FA703C"/>
<path d="M33.4597 45.8296C35.2047 50.5373 38.4493 54.2226 42.7081 57.0247C44.5793 58.2558 46.6462 59.3163 48.8676 60.2181" stroke="#F7441C" stroke-width="2.07059" stroke-linecap="round"/>
<path d="M63.7533 31.986C64.7115 31.3343 65.9706 31.3343 66.9288 31.986L71.3216 34.9733C72.1435 35.5322 72.208 36.72 71.4515 37.3647L66.8673 41.2715C65.9878 42.021 64.6943 42.021 63.8149 41.2715L59.2306 37.3647C58.4741 36.72 58.5387 35.5322 59.3605 34.9733L63.7533 31.986Z" fill="#FFCB31"/>
<g style="mix-blend-mode:multiply" opacity="0.7">
<path fill-rule="evenodd" clip-rule="evenodd" d="M89.4722 66.5159C89.8073 66.2469 90.297 66.3005 90.5659 66.6356C91.582 67.9013 92.3032 69.695 92.7312 71.4252C93.1591 73.1543 93.3225 74.9359 93.1367 76.2154C93.075 76.6406 92.6802 76.9353 92.255 76.8736C91.8297 76.8119 91.5351 76.4171 91.5968 75.9918C91.7434 74.9818 91.6209 73.4162 91.2207 71.7989C90.8208 70.1826 90.172 68.6306 89.3525 67.6097C89.0835 67.2746 89.1371 66.7849 89.4722 66.5159Z" fill="#F7441C"/>
<path fill-rule="evenodd" clip-rule="evenodd" d="M89.4722 66.5159C89.8073 66.2469 90.297 66.3005 90.5659 66.6356C91.582 67.9013 92.3032 69.695 92.7312 71.4252C93.1591 73.1543 93.3225 74.9359 93.1367 76.2154C93.075 76.6406 92.6802 76.9353 92.255 76.8736C91.8297 76.8119 91.5351 76.4171 91.5968 75.9918C91.7434 74.9818 91.6209 73.4162 91.2207 71.7989C90.8208 70.1826 90.172 68.6306 89.3525 67.6097C89.0835 67.2746 89.1371 66.7849 89.4722 66.5159Z" stroke="#F7441C" stroke-width="0.376471" stroke-linecap="round"/>
</g>
<path d="M53.5982 34.6933C53.5982 35.5415 53.2547 36.309 52.6987 36.8646C52.1428 37.4203 51.3753 37.764 50.5273 37.764C49.6794 37.764 48.9119 37.4203 48.356 36.8646C47.8 36.309 47.4565 35.5411 47.4565 34.6933C47.4565 33.8455 47.8 33.0776 48.356 32.522C48.9115 31.9664 49.6794 31.6226 50.5273 31.6226C51.3753 31.6226 52.1428 31.9664 52.6987 32.522C53.2542 33.0776 53.5982 33.8455 53.5982 34.6933Z" fill="white"/>
<path d="M83.2249 34.6933C83.2249 35.5415 82.8814 36.309 82.3254 36.8646C81.77 37.4203 81.002 37.764 80.1541 37.764C79.3061 37.764 78.5386 37.4203 77.9827 36.8646C77.4272 36.309 77.0833 35.5411 77.0833 34.6933C77.0833 33.8455 77.4268 33.0776 77.9827 32.522C78.5382 31.9664 79.3061 31.6226 80.1541 31.6226C81.002 31.6226 81.7695 31.9664 82.3254 32.522C82.8814 33.0776 83.2249 33.8455 83.2249 34.6933Z" fill="white"/>
<path opacity="0.3" d="M73.3013 67.6718L73.3013 67.6719C72.2233 68.2531 70.9998 68.5434 69.7776 68.5438C68.5553 68.5443 67.3309 68.254 66.2511 67.6719L66.251 67.6718C65.8387 67.4494 65.447 67.1874 65.0823 66.8909C64.76 66.6289 64.4591 66.3402 64.1831 66.0288C63.9064 66.3406 63.6046 66.6293 63.2819 66.8914C62.9167 67.1878 62.5251 67.4498 62.1123 67.6723L62.1122 67.6723C61.5731 67.9626 60.9992 68.1846 60.4066 68.3343C59.8139 68.4839 59.2023 68.5604 58.5885 68.5604C57.9166 68.5604 57.2508 68.4694 56.6089 68.292C55.9669 68.1145 55.3491 67.8511 54.7729 67.5063L54.7729 67.5063C54.2138 67.1715 53.7009 66.7649 53.2468 66.2998C52.7926 65.8347 52.3966 65.31 52.0718 64.7399L52.0718 64.7398C51.9767 64.5729 51.9577 64.3831 52.0026 64.2112C52.0476 64.0389 52.1582 63.8831 52.3232 63.786L52.3235 63.7859L52.3235 63.7859C52.4884 63.6894 52.6769 63.669 52.8483 63.7158C53.0188 63.7623 53.1723 63.8746 53.2675 64.0412L53.2676 64.0414C53.533 64.5075 53.8568 64.9365 54.2283 65.3166C54.5999 65.6968 55.019 66.0293 55.4756 66.3027L73.3013 67.6718ZM73.3013 67.6718C73.7137 67.4493 74.1054 67.1869 74.47 66.8909C74.7922 66.6294 75.0935 66.3408 75.3696 66.029L73.3013 67.6718ZM61.4644 66.4384L61.4644 66.4384C61.8906 66.2086 62.2904 65.9267 62.6528 65.6016C63.0154 65.2764 63.3409 64.908 63.6196 64.5057L63.6197 64.5056C63.684 64.4129 63.7688 64.3384 63.8656 64.2872C63.9623 64.2361 64.0714 64.2079 64.1845 64.2079C64.2977 64.2079 64.4068 64.2361 64.5035 64.2872C64.6003 64.3384 64.6852 64.413 64.7496 64.5063C65.027 64.9082 65.3512 65.2761 65.7132 65.6012C66.0753 65.9264 66.4742 66.2082 66.9003 66.438C67.7782 66.9113 68.7774 67.148 69.7779 67.148C70.7784 67.148 71.7767 66.9104 72.653 66.438C73.0791 66.2081 73.4784 65.9263 73.8405 65.6012C74.2025 65.276 74.5272 64.9082 74.8045 64.5059C74.8689 64.4125 74.9538 64.338 75.0508 64.2865C75.1485 64.2346 75.2577 64.207 75.3705 64.207C75.4835 64.207 75.593 64.2352 75.6898 64.2863C75.787 64.3377 75.8718 64.4129 75.936 64.5059L75.936 64.506C76.2129 64.9077 76.5375 65.2756 76.8991 65.6003C77.2608 65.925 77.6605 66.2073 78.0866 66.4371C79.0041 66.9313 80.0522 67.1672 81.0964 67.144C82.1408 67.1209 83.1789 66.8392 84.0771 66.3014C84.5335 66.0279 84.9525 65.6959 85.3235 65.3154C85.6946 64.9348 86.018 64.5062 86.283 64.0401C86.3778 63.8723 86.5315 63.7599 86.7029 63.7138C86.8738 63.6679 87.0624 63.6874 87.227 63.7843M61.4644 66.4384L87.1554 63.906M61.4644 66.4384C60.5457 66.9339 59.4981 67.1694 58.4542 67.1458C57.4104 67.1222 56.3735 66.8401 55.4757 66.3027L61.4644 66.4384ZM87.227 63.7843L87.1554 63.906M87.227 63.7843C87.227 63.7843 87.227 63.7843 87.227 63.7843L87.1554 63.906M87.227 63.7843C87.3919 63.8813 87.5026 64.0366 87.5476 64.2096C87.5923 64.3813 87.5741 64.5711 87.4788 64.738M87.1554 63.906C87.2867 63.9832 87.375 64.1068 87.411 64.2451C87.447 64.3835 87.4321 64.5352 87.3561 64.6682M87.4788 64.738L87.3561 64.6682M87.4788 64.738C87.4788 64.7381 87.4787 64.7382 87.4787 64.7382L87.3561 64.6682M87.4788 64.738C87.1544 65.3081 86.7594 65.8324 86.3052 66.298C85.8511 66.7635 85.3386 67.1701 84.7795 67.5049L84.7795 67.505C84.2033 67.8498 83.5855 68.1136 82.944 68.2911C82.3025 68.4685 81.6367 68.5599 80.9647 68.5599C80.3496 68.5599 79.7376 68.483 79.1446 68.3338C78.5515 68.1847 77.9771 67.9627 77.4379 67.6719C77.4379 67.6719 77.4379 67.6719 77.4379 67.6719L77.5049 67.5476L87.3561 64.6682" fill="#FEEFE9" stroke="#FEEFE9" stroke-width="0.282353"/>
<path opacity="0.3" d="M73.3869 78.6674L73.3868 78.6674C72.7937 78.5182 72.2193 78.2962 71.6801 78.0054L71.6801 78.0054C71.2677 77.7829 70.8761 77.5209 70.5118 77.2249C70.19 76.9633 69.8884 76.6744 69.6123 76.3625C69.3362 76.6743 69.035 76.9629 68.7127 77.2248C68.348 77.5213 67.9564 77.7833 67.5444 78.0054C66.466 78.587 65.2424 78.8774 64.0197 78.8774C62.7971 78.8774 61.5736 78.5875 60.4942 78.0054L73.3869 78.6674ZM73.3869 78.6674C73.9803 78.8165 74.5922 78.8934 75.2074 78.8934C75.8792 78.8934 76.545 78.8034 77.1867 78.6259C77.8282 78.4485 78.446 78.1846 79.0218 77.8398L79.0218 77.8398C79.5804 77.505 80.0928 77.0989 80.547 76.6333C81.0012 76.1677 81.3963 75.6434 81.7207 75.0728M73.3869 78.6674L57.8608 75.6401M57.8608 75.6401L57.8608 75.6401C57.752 75.4821 57.7164 75.2944 57.7471 75.1189C57.7777 74.9439 57.8737 74.7791 58.0301 74.668L58.0302 74.6679C58.1859 74.5574 58.372 74.5207 58.5463 74.5517C58.7209 74.5826 58.8833 74.6817 58.9922 74.8393L58.9923 74.8395C59.2692 75.2412 59.5939 75.6091 59.9555 75.9343C60.3171 76.2594 60.7163 76.5412 61.1429 76.771L61.1429 76.771C62.0209 77.2443 63.0201 77.4811 64.0202 77.4811C65.0202 77.4811 66.019 77.2435 66.8957 76.771C67.3218 76.5412 67.7207 76.2594 68.0828 75.9347C68.4448 75.61 68.7694 75.2417 69.0468 74.8398C69.1799 74.6462 69.4008 74.5553 69.6123 74.5553C69.8238 74.5553 70.0447 74.6462 70.1778 74.84C70.4552 75.2418 70.7798 75.6101 71.1418 75.9352C71.5039 76.2603 71.9028 76.5421 72.3288 76.7719C73.2463 77.2666 74.2944 77.5025 75.3387 77.4793C76.383 77.4562 77.4212 77.1745 78.3193 76.6363C78.7756 76.3628 79.1943 76.0308 79.5653 75.6502C79.9364 75.2696 80.2598 74.841 80.5248 74.375L80.6475 74.4448M57.8608 75.6401C58.2001 76.1322 58.597 76.5824 59.04 76.9802C59.4829 77.378 59.9716 77.7237 60.4942 78.0054L57.8608 75.6401ZM80.6475 74.4448L80.5246 74.3754C80.6194 74.2073 80.7732 74.0949 80.9443 74.0484L80.9813 74.1846L80.9443 74.0484C81.1158 74.0017 81.3046 74.0219 81.4691 74.1193L81.3972 74.2408L81.4688 74.1191C81.6337 74.2161 81.7444 74.3714 81.7895 74.5444C81.8341 74.7161 81.8159 74.9059 81.7207 75.0728M80.6475 74.4448C80.3766 74.9214 80.0459 75.3596 79.6664 75.7488C79.287 76.1379 78.8588 76.4776 78.3919 76.7574L80.6475 74.4448ZM81.7207 75.0728L81.5979 75.0031M81.7207 75.0728C81.7206 75.0729 81.7206 75.073 81.7205 75.0731L81.5979 75.0031M81.5979 75.0031C81.2795 75.5631 80.8917 76.0777 80.446 76.5347C80.0002 76.9917 79.4973 77.3902 78.9492 77.7187L81.5979 75.0031ZM57.9771 75.56C57.8901 75.4337 57.8616 75.2838 57.8862 75.1432C57.9108 75.0026 57.9876 74.8714 58.1119 74.783C58.2357 74.6951 58.3833 74.6661 58.5217 74.6907C58.66 74.7152 58.7891 74.7937 58.8761 74.9196C59.1593 75.3306 59.4914 75.7068 59.8612 76.0393L57.9771 75.56Z" fill="#FEEFE9" stroke="#FEEFE9" stroke-width="0.282353"/>
<path d="M15.5467 27.0019L16.7548 24.1673L19.6476 25.2374L28.5369 45.8398L24.436 47.6043L15.5467 27.0019Z" fill="#FFCB31"/>
<path d="M15.8258 22.0015L19.6635 25.2443L18.3556 25.0374L17.608 26.1278L16.3001 25.9209L15.5525 27.0113L15.8258 22.0015Z" fill="#FEEFE9"/>
<path fill-rule="evenodd" clip-rule="evenodd" d="M17.3114 23.2576L15.8243 22.0002L15.7198 23.9391C16.0066 23.913 16.294 23.8421 16.5726 23.7224C16.8491 23.6036 17.0966 23.4456 17.3114 23.2576Z" fill="#FA6027"/>
<path fill-rule="evenodd" clip-rule="evenodd" d="M26.1859 11.7987C26.1359 11.5937 25.9759 11.4337 25.7709 11.3837L21.5844 10.3638C21.0096 10.2237 21.0096 9.40647 21.5844 9.26645L25.7709 8.24647C25.9759 8.19653 26.136 8.03647 26.1859 7.83148L27.2061 3.64417C27.3461 3.06946 28.1634 3.06946 28.3034 3.64417L29.3235 7.83114C29.3734 8.03613 29.5335 8.19618 29.7384 8.24613L33.9264 9.26645C34.5011 9.40647 34.5011 10.2237 33.9264 10.3638L29.7385 11.3841C29.5335 11.434 29.3735 11.5941 29.3235 11.7991L28.3034 15.9862C28.1634 16.5609 27.3461 16.5609 27.2061 15.9862L26.1859 11.7987Z" fill="#FFCB31"/>
</g>
<defs>
<clipPath id="clip0_71_19267">
<rect width="132" height="80" fill="white"/>
</clipPath>
</defs>
</svg>
